<svg width="202" height="52" viewBox="0 0 202 52" fill="none" xmlns="http://www.w3.org/2000/svg">
<g clip-path="url(#clip0_249_631)">
<path d="M8.54506 24.3951C7.55836 32.4829 14.1056 39.3131 21.8583 38.2838C27.1418 37.584 31.4094 33.132 32.0802 27.6201C33.0669 19.5323 26.5147 12.7021 18.7669 13.7315C13.4834 14.4312 9.21583 18.8833 8.54506 24.3951ZM27.7591 24.669C28.6145 30.054 24.1914 34.6633 19.0294 33.7759C15.904 33.2384 13.3814 30.6067 12.8613 27.3412C12.0058 21.9561 16.429 17.3469 21.5909 18.2342C24.7212 18.7768 27.2438 21.4085 27.7591 24.669Z" fill="white"/>
<path d="M4.31136 26.0076C4.31136 16.8043 11.4905 9.31487 20.3125 9.31487H25.7224C26.6313 12.2052 29.2755 14.2842 32.362 14.203C35.9199 14.1117 38.8898 11.0186 38.9918 7.31195C39.1036 3.29595 36.0074 0 32.187 0C29.1977 0 26.6556 2.01814 25.7418 4.81716H20.3125H20.1715V4.82223C9.03588 4.90336 0 14.3704 0 26.0076C0 28.7711 0.515225 31.4079 1.43874 33.8266H1.59428C3.68434 33.8266 5.15711 31.7882 4.70021 29.6636C4.44746 28.4872 4.31136 27.2601 4.31136 26.0076ZM31.7009 4.54842C33.4556 4.19854 34.9721 5.78059 34.6367 7.61112C34.452 8.63033 33.6549 9.46192 32.6779 9.65461C30.9232 10.0045 29.4067 8.42243 29.7421 6.59191C29.9268 5.5727 30.7239 4.7411 31.7009 4.54842Z" fill="white"/>
<path d="M39.1621 18.1279C37.0282 18.1279 35.4631 20.1917 35.9297 22.367C36.1825 23.5384 36.3137 24.7604 36.3137 26.0078C36.3137 35.2111 29.1346 42.7005 20.3126 42.7005H14.7958C13.8917 39.8052 11.2476 37.7211 8.1562 37.8022C4.59338 37.8884 1.61868 40.9816 1.51661 44.6933C1.40481 48.7042 4.50102 52.0002 8.32147 52.0002C11.3059 52.0002 13.8431 49.9871 14.7618 47.1982H19.8849C30.4616 47.1982 39.5849 38.933 40.5376 27.9448C40.8438 24.4562 40.3189 21.1247 39.1621 18.1279ZM8.32147 47.5025C6.75149 47.5025 5.51689 45.9813 5.89602 44.2775C6.10503 43.3496 6.8244 42.594 7.71389 42.3709C9.31303 41.9754 10.7421 43.1924 10.8101 44.7795V45.0178C10.7518 46.3971 9.66299 47.5025 8.32147 47.5025Z" fill="white"/>
</g>
<path d="M54.568 29.752V29.112C54.568 28.664 54.792 28.44 55.24 28.44H57.96C58.408 28.44 58.632 28.664 58.632 29.112V29.368C58.632 30.1787 58.792 30.7333 59.112 31.032C59.432 31.3307 60.0187 31.48 60.872 31.48H62.376C63.208 31.48 63.784 31.32 64.104 31C64.4453 30.68 64.616 30.0827 64.616 29.208V28.824C64.616 28.2053 64.36 27.736 63.848 27.416C63.3573 27.0747 62.7387 26.872 61.992 26.808C61.2453 26.744 60.4347 26.6267 59.56 26.456C58.7067 26.264 57.9067 26.0293 57.16 25.752C56.4133 25.4533 55.784 24.888 55.272 24.056C54.7813 23.2027 54.536 22.1147 54.536 20.792V19.672C54.536 18.008 55.0053 16.7173 55.944 15.8C56.8827 14.8827 58.184 14.424 59.848 14.424H63.048C64.7333 14.424 66.0453 14.8827 66.984 15.8C67.9227 16.7173 68.392 18.008 68.392 19.672V20.28C68.392 20.728 68.168 20.952 67.72 20.952H65C64.552 20.952 64.328 20.728 64.328 20.28V20.088C64.328 19.256 64.168 18.6907 63.848 18.392C63.528 18.0933 62.9413 17.944 62.088 17.944H60.84C59.9653 17.944 59.368 18.1147 59.048 18.456C58.7493 18.776 58.6 19.416 58.6 20.376V20.984C58.6 21.9867 59.4747 22.5627 61.224 22.712C63.0373 22.8613 64.648 23.224 66.056 23.8C66.8027 24.12 67.4213 24.696 67.912 25.528C68.424 26.3387 68.68 27.384 68.68 28.664V29.752C68.68 31.416 68.2107 32.7067 67.272 33.624C66.3333 34.5413 65.032 35 63.368 35H59.88C58.216 35 56.9147 34.5413 55.976 33.624C55.0373 32.7067 54.568 31.416 54.568 29.752ZM78.89 31.48H81.162C81.8447 31.48 82.3247 31.3413 82.602 31.064C82.9007 30.7653 83.05 30.2747 83.05 29.592V19.832C83.05 19.1493 82.9007 18.6693 82.602 18.392C82.3247 18.0933 81.8447 17.944 81.162 17.944H78.89C78.2073 17.944 77.7273 18.0933 77.45 18.392C77.1727 18.6693 77.034 19.1493 77.034 19.832V29.592C77.034 30.2747 77.1727 30.7653 77.45 31.064C77.7273 31.3413 78.2073 31.48 78.89 31.48ZM81.834 35H78.25C76.5647 35 75.2633 34.552 74.346 33.656C73.4287 32.76 72.97 31.4693 72.97 29.784V19.64C72.97 17.9547 73.4287 16.664 74.346 15.768C75.2633 14.872 76.5647 14.424 78.25 14.424H81.834C83.5193 14.424 84.8207 14.872 85.738 15.768C86.6553 16.664 87.114 17.9547 87.114 19.64V29.784C87.114 31.4693 86.6553 32.76 85.738 33.656C84.8207 34.552 83.5193 35 81.834 35ZM102.434 14.424H105.122C105.592 14.424 105.826 14.6373 105.826 15.064V29.784C105.826 31.448 105.357 32.7387 104.418 33.656C103.501 34.552 102.21 35 100.546 35H97.0262C95.3409 35 94.0396 34.552 93.1222 33.656C92.2049 32.76 91.7462 31.4693 91.7462 29.784V15.096C91.7462 14.648 91.9702 14.424 92.4182 14.424H95.1382C95.5862 14.424 95.8102 14.648 95.8102 15.096V29.592C95.8102 30.2747 95.9489 30.7653 96.2262 31.064C96.5249 31.3413 97.0049 31.48 97.6662 31.48H99.8742C100.557 31.48 101.037 31.3413 101.314 31.064C101.613 30.7653 101.762 30.2747 101.762 29.592V15.096C101.762 14.648 101.986 14.424 102.434 14.424ZM121.973 35H111.445C110.997 35 110.773 34.776 110.773 34.328V15.096C110.773 14.648 110.997 14.424 111.445 14.424H114.165C114.613 14.424 114.837 14.648 114.837 15.096V31.096C114.837 31.3307 114.965 31.448 115.221 31.448H121.973C122.399 31.448 122.613 31.6827 122.613 32.152V34.328C122.613 34.776 122.399 35 121.973 35ZM128.251 35H125.179C124.795 35 124.667 34.776 124.795 34.328L129.851 15.096C130.001 14.648 130.321 14.424 130.811 14.424H135.067C135.601 14.424 135.921 14.648 136.027 15.096L141.083 34.328C141.211 34.776 141.083 35 140.699 35H137.627C137.393 35 137.233 34.9573 137.147 34.872C137.062 34.7653 136.998 34.584 136.955 34.328L136.059 30.808H129.819L128.923 34.328C128.881 34.584 128.806 34.7653 128.699 34.872C128.614 34.9573 128.465 35 128.251 35ZM132.891 18.296L130.587 27.544H135.323L133.019 18.296H132.891ZM148.272 35H145.552C145.104 35 144.88 34.776 144.88 34.328V15.096C144.88 14.648 145.104 14.424 145.552 14.424H153.168C154.832 14.424 156.133 14.8827 157.072 15.8C158.011 16.7173 158.48 18.008 158.48 19.672V22.168C158.48 24.5787 157.531 26.1787 155.632 26.968V27.096L159.056 34.232C159.248 34.744 159.067 35 158.512 35H155.92C155.536 35 155.259 34.9573 155.088 34.872C154.917 34.7867 154.779 34.6053 154.672 34.328L151.472 27.416H149.328C149.072 27.416 148.944 27.5333 148.944 27.768V34.328C148.944 34.776 148.72 35 148.272 35ZM149.296 24.152H152.432C153.115 24.152 153.616 24.0133 153.936 23.736C154.256 23.4373 154.416 22.968 154.416 22.328V19.832C154.416 19.1707 154.256 18.6907 153.936 18.392C153.616 18.0933 153.115 17.944 152.432 17.944H149.296C149.061 17.944 148.944 18.0613 148.944 18.296V23.8C148.944 24.0347 149.061 24.152 149.296 24.152ZM167.564 15.096V34.328C167.564 34.776 167.34 35 166.892 35H164.172C163.724 35 163.5 34.776 163.5 34.328V15.096C163.5 14.648 163.724 14.424 164.172 14.424H166.892C167.34 14.424 167.564 14.648 167.564 15.096ZM172.319 29.752V29.112C172.319 28.664 172.543 28.44 172.991 28.44H175.711C176.159 28.44 176.383 28.664 176.383 29.112V29.368C176.383 30.1787 176.543 30.7333 176.863 31.032C177.183 31.3307 177.77 31.48 178.623 31.48H180.127C180.959 31.48 181.535 31.32 181.855 31C182.197 30.68 182.367 30.0827 182.367 29.208V28.824C182.367 28.2053 182.111 27.736 181.599 27.416C181.109 27.0747 180.49 26.872 179.743 26.808C178.997 26.744 178.186 26.6267 177.311 26.456C176.458 26.264 175.658 26.0293 174.911 25.752C174.165 25.4533 173.535 24.888 173.023 24.056C172.533 23.2027 172.287 22.1147 172.287 20.792V19.672C172.287 18.008 172.757 16.7173 173.695 15.8C174.634 14.8827 175.935 14.424 177.599 14.424H180.799C182.485 14.424 183.797 14.8827 184.735 15.8C185.674 16.7173 186.143 18.008 186.143 19.672V20.28C186.143 20.728 185.919 20.952 185.471 20.952H182.751C182.303 20.952 182.079 20.728 182.079 20.28V20.088C182.079 19.256 181.919 18.6907 181.599 18.392C181.279 18.0933 180.693 17.944 179.839 17.944H178.591C177.717 17.944 177.119 18.1147 176.799 18.456C176.501 18.776 176.351 19.416 176.351 20.376V20.984C176.351 21.9867 177.226 22.5627 178.975 22.712C180.789 22.8613 182.399 23.224 183.807 23.8C184.554 24.12 185.173 24.696 185.663 25.528C186.175 26.3387 186.431 27.384 186.431 28.664V29.752C186.431 31.416 185.962 32.7067 185.023 33.624C184.085 34.5413 182.783 35 181.119 35H177.631C175.967 35 174.666 34.5413 173.727 33.624C172.789 32.7067 172.319 31.416 172.319 29.752Z" fill="white"/>
<defs>
<clipPath id="clip0_249_631">
<rect width="40.625" height="52" fill="white"/>
</clipPath>
</defs>
</svg>
