<svg width="47" height="47" viewBox="0 0 47 47" fill="none" xmlns="http://www.w3.org/2000/svg">
<path d="M14.7639 44.0626C32.5005 44.0626 42.2031 29.3663 42.2031 16.644C42.2031 16.2327 42.2031 15.8156 42.1854 15.4043C44.0744 14.0369 45.7047 12.3439 47 10.4047C45.2355 11.1827 43.3656 11.6955 41.4511 11.9263C43.4678 10.7209 44.9782 8.82424 45.7016 6.5889C43.8069 7.71138 41.7331 8.49937 39.5711 8.91833C38.1175 7.37034 36.1941 6.34484 34.0987 6.00068C32.0034 5.65652 29.853 6.01291 27.9807 7.01465C26.1084 8.01638 24.6186 9.60755 23.7422 11.5417C22.8658 13.4758 22.6516 15.645 23.1328 17.7132C19.2986 17.521 15.5476 16.5249 12.1232 14.7896C8.69873 13.0544 5.67726 10.6187 3.25475 7.64052C2.02494 9.76458 1.64962 12.2771 2.20502 14.6678C2.76042 17.0585 4.2049 19.1483 6.24512 20.5126C4.71627 20.4607 3.22103 20.0502 1.88 19.3141V19.4463C1.88264 21.6714 2.65346 23.8274 4.06219 25.5498C5.47092 27.2721 7.43113 28.4553 9.6115 28.8992C8.7839 29.1272 7.92899 29.2409 7.07056 29.237C6.46539 29.2389 5.86143 29.1828 5.26694 29.0696C5.88319 30.985 7.08311 32.6597 8.69866 33.8591C10.3142 35.0585 12.2645 35.7226 14.2763 35.7583C10.8586 38.4426 6.63699 39.8984 2.29125 39.8913C1.5255 39.8946 0.760293 39.8504 0 39.7591C4.4107 42.5711 9.53306 44.0642 14.7639 44.0626V44.0626Z" fill="black"/>
</svg>
